<svg width="212" height="36" viewBox="0 0 212 36" fill="none" xmlns="http://www.w3.org/2000/svg">
<path d="M15.8216 9.20239C15.7342 8.24109 15.3453 7.49391 14.6549 6.96083C13.9733 6.41901 12.9989 6.1481 11.7317 6.1481C10.8928 6.1481 10.1937 6.25734 9.63438 6.47582C9.07509 6.69429 8.65561 6.99579 8.37597 7.3803C8.09632 7.75608 7.95212 8.18866 7.94339 8.67805C7.92591 9.08004 8.00456 9.43397 8.17934 9.73984C8.36286 10.0457 8.62503 10.3166 8.96585 10.5526C9.31541 10.7798 9.73488 10.9808 10.2243 11.1556C10.7137 11.3303 11.2642 11.4833 11.8759 11.6144L14.183 12.1387C15.5114 12.4271 16.6824 12.8116 17.6961 13.2922C18.7186 13.7729 19.575 14.3453 20.2654 15.0095C20.9645 15.6736 21.4932 16.4383 21.8515 17.3034C22.2098 18.1686 22.3933 19.1386 22.4021 20.2135C22.3933 21.9089 21.9651 23.364 21.1174 24.5787C20.2698 25.7934 19.0507 26.7241 17.4602 27.3708C15.8784 28.0175 13.9689 28.3408 11.7317 28.3408C9.48582 28.3408 7.52828 28.0044 5.85913 27.3315C4.18998 26.6586 2.89224 25.6361 1.9659 24.2641C1.03957 22.892 0.563291 21.1574 0.537074 19.06H6.75051C6.80294 19.9252 7.03453 20.6461 7.44526 21.2229C7.856 21.7997 8.41966 22.2366 9.13626 22.5337C9.8616 22.8309 10.7005 22.9794 11.6531 22.9794C12.527 22.9794 13.2698 22.8615 13.8815 22.6255C14.502 22.3896 14.9783 22.0618 15.3104 21.6424C15.6425 21.2229 15.8129 20.7423 15.8216 20.2004C15.8129 19.6936 15.6556 19.261 15.3497 18.9027C15.0438 18.5357 14.5719 18.221 13.934 17.9589C13.3048 17.688 12.5008 17.4389 11.522 17.2117L8.71679 16.5563C6.39221 16.0232 4.56139 15.1624 3.22432 13.9739C1.88725 12.7766 1.22309 11.1599 1.23182 9.12374C1.22309 7.46332 1.66878 6.00828 2.56889 4.7586C3.46901 3.50892 4.71432 2.53452 6.30482 1.8354C7.89532 1.13628 9.70867 0.786719 11.7449 0.786719C13.8247 0.786719 15.6293 1.14065 17.1587 1.84851C18.6967 2.54763 19.8896 3.53077 20.7373 4.79793C21.585 6.06508 22.0176 7.53324 22.035 9.20239H15.8216ZM32.0893 16.5169V28H25.6792V1.15376H31.8795V11.5619H32.1024C32.5568 10.321 33.2996 9.35095 34.3308 8.65183C35.3708 7.95271 36.6423 7.60315 38.1454 7.60315C39.5611 7.60315 40.7933 7.91775 41.842 8.54696C42.8907 9.16743 43.7034 10.0457 44.2802 11.1818C44.8657 12.3178 45.1541 13.6462 45.1454 15.1668V28H38.7353V16.4252C38.744 15.3066 38.4644 14.4327 37.8963 13.8035C37.3283 13.1743 36.5287 12.8597 35.4975 12.8597C34.8246 12.8597 34.2303 13.0082 33.7147 13.3054C33.2079 13.5937 32.8102 14.0088 32.5219 14.5507C32.2422 15.0925 32.098 15.7479 32.0893 16.5169ZM58.5455 28.3801C56.4307 28.3801 54.613 27.9476 53.0924 27.0824C51.5805 26.2085 50.4139 24.9938 49.5924 23.4382C48.7797 21.874 48.3733 20.0606 48.3733 17.9982C48.3733 15.9271 48.7797 14.1137 49.5924 12.5582C50.4139 10.9939 51.5805 9.77916 53.0924 8.914C54.613 8.0401 56.4307 7.60315 58.5455 7.60315C60.6604 7.60315 62.4737 8.0401 63.9856 8.914C65.5062 9.77916 66.6728 10.9939 67.4855 12.5582C68.307 14.1137 68.7177 15.9271 68.7177 17.9982C68.7177 20.0606 68.307 21.874 67.4855 23.4382C66.6728 24.9938 65.5062 26.2085 63.9856 27.0824C62.4737 27.9476 60.6604 28.3801 58.5455 28.3801ZM58.5849 23.5431C59.3539 23.5431 60.005 23.3072 60.538 22.8352C61.0711 22.3633 61.4775 21.7079 61.7571 20.869C62.0455 20.03 62.1897 19.06 62.1897 17.9589C62.1897 16.8403 62.0455 15.8615 61.7571 15.0226C61.4775 14.1836 61.0711 13.5282 60.538 13.0563C60.005 12.5844 59.3539 12.3484 58.5849 12.3484C57.7896 12.3484 57.1167 12.5844 56.5662 13.0563C56.0243 13.5282 55.6092 14.1836 55.3208 15.0226C55.0412 15.8615 54.9014 16.8403 54.9014 17.9589C54.9014 19.06 55.0412 20.03 55.3208 20.869C55.6092 21.7079 56.0243 22.3633 56.5662 22.8352C57.1167 23.3072 57.7896 23.5431 58.5849 23.5431ZM72.0014 28V7.86532H78.228V11.5357H78.4377C78.8047 10.2074 79.4034 9.21987 80.2336 8.57318C81.0638 7.91775 82.0294 7.59004 83.1306 7.59004C83.4277 7.59004 83.7335 7.61189 84.0482 7.65558C84.3628 7.69054 84.6555 7.74734 84.9264 7.82599V13.3971C84.6206 13.2922 84.2186 13.2092 83.7204 13.1481C83.2311 13.0869 82.7941 13.0563 82.4096 13.0563C81.6493 13.0563 80.9633 13.2267 80.3515 13.5675C79.7486 13.8996 79.2723 14.3671 78.9227 14.9701C78.5819 15.5644 78.4115 16.2635 78.4115 17.0675V28H72.0014ZM99.8406 7.86532V12.5844H87.1385V7.86532H99.8406ZM89.7995 3.04138H96.2096V21.6686C96.2096 22.0618 96.2708 22.3808 96.3931 22.6255C96.5242 22.8615 96.7121 23.0319 96.9568 23.1367C97.2015 23.2329 97.4942 23.2809 97.835 23.2809C98.0797 23.2809 98.3375 23.2591 98.6084 23.2154C98.8881 23.163 99.0978 23.1193 99.2377 23.0843L100.208 27.7116C99.9018 27.799 99.4692 27.9082 98.9099 28.0393C98.3594 28.1704 97.6996 28.2534 96.9306 28.2884C95.4274 28.3583 94.1384 28.1835 93.0635 27.764C91.9974 27.3358 91.1803 26.6717 90.6122 25.7716C90.053 24.8714 89.782 23.7397 89.7995 22.3764V3.04138ZM107.031 35.5505C106.262 35.5505 105.536 35.4893 104.855 35.367C104.173 35.2534 103.587 35.1004 103.098 34.9082L104.514 30.2547C105.143 30.4644 105.711 30.5867 106.218 30.6217C106.734 30.6567 107.175 30.5736 107.542 30.3726C107.918 30.1804 108.206 29.8352 108.407 29.3371L108.656 28.7341L101.499 7.86532H108.21L111.92 22.2323H112.13L115.892 7.86532H122.643L115.053 29.927C114.686 31.0281 114.166 31.9981 113.493 32.837C112.829 33.6847 111.968 34.3489 110.911 34.8295C109.862 35.3102 108.569 35.5505 107.031 35.5505ZM137.986 14.6686V19.6105H125.56V14.6686H137.986ZM158.754 1.15376H165.229V18.4701C165.229 20.4713 164.753 22.2148 163.8 23.7004C162.848 25.1773 161.519 26.3221 159.815 27.1348C158.111 27.9388 156.132 28.3408 153.877 28.3408C151.596 28.3408 149.604 27.9388 147.9 27.1348C146.196 26.3221 144.872 25.1773 143.928 23.7004C142.984 22.2148 142.512 20.4713 142.512 18.4701V1.15376H149.001V17.9064C149.001 18.8328 149.202 19.6586 149.604 20.384C150.015 21.1093 150.587 21.6773 151.321 22.0881C152.055 22.4988 152.907 22.7042 153.877 22.7042C154.847 22.7042 155.695 22.4988 156.42 22.0881C157.154 21.6773 157.727 21.1093 158.137 20.384C158.548 19.6586 158.754 18.8328 158.754 17.9064V1.15376ZM169.296 28V1.15376H180.386C182.396 1.15376 184.131 1.51643 185.59 2.24176C187.058 2.95836 188.19 3.98957 188.985 5.33537C189.78 6.67244 190.178 8.25857 190.178 10.0938C190.178 11.9552 189.772 13.5369 188.959 14.839C188.146 16.1324 186.993 17.1199 185.498 17.8016C184.004 18.4745 182.234 18.8109 180.189 18.8109H173.176V13.6986H178.983C179.962 13.6986 180.779 13.5719 181.435 13.3185C182.099 13.0563 182.601 12.663 182.942 12.1387C183.283 11.6056 183.453 10.924 183.453 10.0938C183.453 9.26356 183.283 8.57755 182.942 8.03573C182.601 7.48517 182.099 7.07444 181.435 6.80353C180.77 6.52388 179.953 6.38406 178.983 6.38406H175.785V28H169.296ZM184.41 15.7304L191.096 28H184.017L177.463 15.7304H184.41ZM193.737 28V1.15376H200.226V22.7304H211.394V28H193.737Z" fill="url(#paint0_radial_1_597)"/>
<defs>
<radialGradient id="paint0_radial_1_597" cx="0" cy="0" r="1" gradientUnits="userSpaceOnUse" gradientTransform="translate(10.909 28.3458) rotate(-2.47417) scale(203.906 5719.4)">
<stop stop-color="#EB568E"/>
<stop offset="1" stop-color="#144EE3"/>
</radialGradient>
</defs>
</svg>
